Coordinates
version=1
nRows=60
nColumns=12
inDegrees=yes

Units are S.I. units (second, meters, Newtons, ...)
Angles are in degrees

endheader
time	SC_y	SC_z	SC_x	AC_y	AC_z	AC_x	GH_y	GH_z	GH_yy	EL_x	PS_y
       0.0              -45.76          38.16          18.22          67.92         -16.23         -11.74         -173.9           12.7         -101.6          50.84          73.41
   0.01713              -45.76          38.15          18.22          67.92         -16.23         -11.74         -173.9           12.7         -101.6          50.85          73.41
   0.03427              -45.75          38.15          18.22          67.91         -16.23         -11.74         -173.9          12.69         -101.6          50.85           73.4
    0.0514              -45.75          38.14          18.22          67.91         -16.22         -11.74         -173.8          12.69         -101.6          50.86          73.39
   0.06853              -45.74          38.13          18.21           67.9         -16.22         -11.74         -173.8          12.68         -101.6          50.86          73.37
   0.08566              -45.74          38.13          18.21           67.9         -16.22         -11.75         -173.8          12.68         -101.5          50.87          73.36
    0.1028              -45.73          38.12          18.21          67.89         -16.22         -11.75         -173.7          12.68         -101.5          50.88          73.35
    0.1199              -45.73          38.11          18.21          67.89         -16.22         -11.75         -173.7          12.67         -101.5          50.88          73.34
    0.1371              -45.72           38.1          18.21          67.88         -16.22         -11.75         -173.6          12.67         -101.4          50.89          73.32
    0.1542              -45.71          38.09          18.21          67.88         -16.22         -11.75         -173.6          12.66         -101.4           50.9          73.31
    0.1713              -45.71          38.08          18.21          67.87         -16.21         -11.75         -173.5          12.66         -101.4          50.91          73.29
    0.1885               -45.7          38.07          18.21          67.86         -16.21         -11.75         -173.4          12.65         -101.3          50.92          73.28
    0.2056              -45.69          38.06          18.21          67.85         -16.21         -11.75         -173.4          12.65         -101.3          50.93          73.26
    0.2227              -45.68          38.05          18.21          67.85         -16.21         -11.75         -173.3          12.64         -101.2          50.94          73.24
    0.2399              -45.67          38.04           18.2          67.84          -16.2         -11.75         -173.2          12.63         -101.2          50.95          73.22
     0.257              -45.66          38.02           18.2          67.83          -16.2         -11.76         -173.1          12.62         -101.1          50.96          73.19
    0.2741              -45.65          38.01           18.2          67.82          -16.2         -11.76         -173.0          12.61         -101.1          50.98          73.17
    0.2913              -45.63          37.99           18.2          67.81          -16.2         -11.76         -172.9          12.61         -101.0          50.99          73.14
    0.3084              -45.62          37.97           18.2          67.79         -16.19         -11.76         -172.8          12.59         -100.9          51.01          73.11
    0.3255               -45.6          37.95           18.2          67.78         -16.19         -11.76         -172.7          12.58         -100.9          51.03          73.08
    0.3427              -45.59          37.93          18.19          67.77         -16.18         -11.77         -172.6          12.57         -100.8          51.05          73.04
    0.3598              -45.57           37.9          18.19          67.75         -16.18         -11.77         -172.4          12.56         -100.7          51.07           73.0
    0.3769              -45.55          37.88          18.19          67.73         -16.17         -11.77         -172.3          12.54         -100.6           51.1          72.95
    0.3941              -45.52          37.85          18.19          67.71         -16.17         -11.78         -172.1          12.53         -100.5          51.12           72.9
    0.4112               -45.5          37.81          18.18          67.69         -16.16         -11.78         -171.9          12.51         -100.3          51.15          72.85
    0.4283              -45.47          37.78          18.18          67.66         -16.15         -11.78         -171.7          12.49         -100.2          51.19          72.79
    0.4455              -45.44          37.73          18.17          67.64         -16.15         -11.79         -171.4          12.46         -100.0          51.22          72.72
    0.4626               -45.4          37.69          18.17           67.6         -16.14         -11.79         -171.2          12.44         -99.84          51.27          72.64
    0.4797              -45.36          37.63          18.16          67.57         -16.13          -11.8         -170.9          12.41         -99.63          51.32          72.56
    0.4969              -45.31          37.57          18.16          67.53         -16.11         -11.81         -170.5          12.37          -99.4          51.37          72.46
     0.514              -45.26          37.51          18.15          67.48          -16.1         -11.81         -170.1          12.34         -99.14          51.43          72.34
    0.5311               -45.2          37.43          18.14          67.43         -16.09         -11.82         -169.6          12.29         -98.83           51.5          72.21
    0.5483              -45.13          37.34          18.13          67.37         -16.07         -11.83         -169.1          12.24         -98.48          51.59          72.07
    0.5654              -45.04          37.23          18.12           67.3         -16.05         -11.84         -168.5          12.18         -98.08          51.68          71.89
    0.5825              -44.95          37.11          18.11          67.21         -16.02         -11.86         -167.7          12.11          -97.6          51.79          71.69
    0.5997              -44.83          36.96          18.09          67.12          -16.0         -11.87         -166.9          12.03         -97.04          51.93          71.45
    0.6168               -44.7          36.79          18.08           67.0         -15.96         -11.89         -165.9          11.94         -96.37          52.08          71.16
    0.6339              -44.54          36.58          18.06          66.86         -15.92         -11.91         -164.6          11.82         -95.57          52.27          70.82
    0.6511              -44.34          36.33          18.03          66.69         -15.87         -11.94         -163.2          11.68          -94.6           52.5          70.41
    0.6682              -44.11          36.02           18.0          66.49         -15.81         -11.97         -161.3          11.51         -93.42          52.78          69.91
    0.6853              -43.81          35.64          17.96          66.23         -15.74         -12.02         -159.1           11.3         -91.96          53.12          69.28
    0.7024              -43.44          35.17          17.91          65.91         -15.65         -12.07         -156.3          11.04         -90.14          53.55          68.51
    0.7196              -42.98          34.57          17.85          65.51         -15.53         -12.13         -152.8          10.71         -87.85          54.09          67.53
    0.7367               -42.4          33.81          17.77          65.01         -15.39         -12.21         -148.4          10.29         -84.93          54.78          66.28
    0.7538              -41.64          32.84          17.67          64.36          -15.2         -12.32         -142.7          9.746          -81.2          55.66          64.69
     0.771              -40.68           31.6          17.54          63.52         -14.96         -12.45         -135.3          9.055         -76.41          56.79          62.65
    0.7881              -39.45          30.01          17.38          62.45         -14.65         -12.63         -126.0          8.172          -70.3          58.23          60.04
    0.8052               -37.9          28.01          17.17          61.11         -14.26         -12.84         -114.2          7.062         -62.61          60.04          56.76
    0.8224              -36.01          25.58          16.92          59.48         -13.79         -13.11         -99.86          5.709         -53.24          62.25          52.76
    0.8395              -33.82          22.76          16.63          57.59         -13.24         -13.42         -83.24          4.141         -42.37          64.81          48.13
    0.8566              -31.45           19.7          16.32          55.54         -12.65         -13.75         -65.25          2.443         -30.61          67.58          43.11
    0.8738              -29.08          16.65           16.0          53.49         -12.05         -14.08         -47.25         0.7447         -18.85          70.35           38.1
    0.8909              -26.89          13.82          15.71           51.6         -11.51         -14.39         -30.63        -0.8235         -7.989          72.91          33.46
     0.908               -25.0          11.39          15.46          49.96         -11.03         -14.65         -16.29         -2.176          1.382          75.12          29.47
    0.9252              -23.45          9.392          15.26          48.62         -10.65         -14.87         -4.525         -3.287          9.072          76.93          26.19
    0.9423              -22.22          7.803           15.1          47.56         -10.34         -15.04          4.833          -4.17          15.19          78.37          23.58
    0.9594              -21.26          6.559          14.97          46.72          -10.1         -15.18          12.16         -4.861          19.98           79.5          21.54
    0.9766               -20.5          5.589          14.87          46.07         -9.909         -15.28          17.87           -5.4          23.71          80.38          19.94
    0.9937              -19.92          4.832          14.79          45.56         -9.762         -15.36          22.33          -5.82          26.62          81.06           18.7
     1.011              -19.46          4.236          14.73          45.16         -9.647         -15.43          25.84         -6.151          28.91           81.6          17.72
